<svg width="18" height="18" viewBox="0 0 18 18" fill="none" xmlns="http://www.w3.org/2000/svg">
<path d="M9.1875 1.10239C8.6625 1.06489 8.115 1.18489 7.6275 1.46989C7.31434 1.64919 7.03965 1.88855 6.81919 2.17423C6.59872 2.45992 6.43682 2.78631 6.34275 3.13469C6.24869 3.48308 6.22432 3.8466 6.27104 4.20443C6.31775 4.56225 6.43464 4.90733 6.615 5.21989L12.12 14.7449C12.8775 16.0649 14.5575 16.4999 15.8775 15.7499C17.19 14.9999 17.625 13.3124 16.875 11.9999L11.385 2.47489C11.1582 2.08439 10.8395 1.75522 10.4565 1.51602C10.0735 1.27681 9.63789 1.13482 9.1875 1.10239ZM5.115 5.06989L1.125 11.9999C0.881873 12.4166 0.752552 12.8899 0.75 13.3724C0.75 13.7339 0.821195 14.0918 0.959522 14.4257C1.09785 14.7597 1.3006 15.0631 1.55619 15.3187C1.81178 15.5743 2.11522 15.777 2.44916 15.9154C2.78311 16.0537 3.14104 16.1249 3.5025 16.1249C3.98497 16.1234 4.45859 15.9951 4.87586 15.7529C5.29314 15.5107 5.63942 15.1631 5.88 14.7449V14.7524L8.25 10.6424C7.2375 8.91739 6.2025 7.19989 5.2725 5.42239C5.2125 5.30989 5.16 5.18989 5.1225 5.06989H5.115Z" fill="white"/>
</svg>
