            <svg width="18" height="18" viewBox="0 0 18 18" fill="none" xmlns="http://www.w3.org/2000/svg">
            <g clipPath="url(#clip0_5_61)">
            <path d="M11.25 1.125H18V18H0V0.325195L11.25 11.5752V1.125ZM1.125 16.875H14.9502L1.125 3.0498V16.875ZM15.4248 15.75L16.5498 16.875H16.875V2.25H12.375V3.375H14.625V4.5H12.375V5.625H14.625V6.75H12.375V7.875H15.75V9H12.375V10.125H14.625V11.25H12.375V12.375H14.625V13.5H13.1748L14.2998 14.625H15.75V15.75H15.4248ZM3.375 9.3252L8.6748 14.625H3.375V9.3252ZM4.5 12.0498V13.5H5.9502L4.5 12.0498Z" fill="white"/>
            </g>
            <defs>
            <clipPath id="clip0_5_61">
            <rect width="18" height="18" fill="white"/>
            </clipPath>
            </defs>
            </svg>
