<svg width="21" height="21" viewBox="0 0 21 21" fill="none" xmlns="http://www.w3.org/2000/svg">
<path d="M8.85787 18.3346V12.0901H6.46787C6.34379 12.0901 6.22478 12.0408 6.13704 11.953C6.04929 11.8653 6 11.7463 6 11.6222V9.15235C6 9.02826 6.04929 8.90925 6.13704 8.82151C6.22478 8.73377 6.34379 8.68448 6.46787 8.68448H8.84843V6.29362C8.79148 5.72663 8.85937 5.15406 9.04729 4.6161C9.23523 4.07816 9.53866 3.58788 9.93629 3.1797C10.3339 2.77152 10.8161 2.45535 11.3489 2.25339C11.8818 2.05143 12.4524 1.96858 13.0206 2.01066H15.0123C15.1376 2.01042 15.2579 2.05943 15.3474 2.14711C15.4368 2.2348 15.4882 2.35414 15.4905 2.47939V4.57064C15.4878 4.69567 15.4362 4.81466 15.3469 4.90213C15.2574 4.98958 15.1373 5.03855 15.0123 5.03851H13.7676C12.4231 5.03851 12.1647 5.67551 12.1647 6.61211V8.68362H15.3608C15.4272 8.68142 15.4934 8.69372 15.5546 8.71965C15.6158 8.74559 15.6706 8.78454 15.7152 8.83381C15.7598 8.88309 15.7931 8.94148 15.8129 9.00494C15.8326 9.0684 15.8383 9.1354 15.8296 9.20128L15.5403 11.6806C15.5258 11.7941 15.4701 11.8984 15.384 11.9737C15.2977 12.049 15.1869 12.0901 15.0724 12.0892H12.1845V18.3338C12.1859 18.4441 12.1652 18.5535 12.1236 18.6556C12.082 18.7577 12.0204 18.8505 11.9424 18.9284C11.8643 19.0063 11.7715 19.0679 11.6693 19.1093C11.5672 19.1509 11.4577 19.1714 11.3475 19.1699H9.6846C9.57516 19.1702 9.46678 19.1486 9.36575 19.1065C9.26472 19.0645 9.17307 19.0028 9.09614 18.925C9.0192 18.8472 8.9585 18.7548 8.9176 18.6533C8.8767 18.5518 8.8564 18.4441 8.85787 18.3346Z" fill="white"/>
</svg>
