<svg width="21" height="21" viewBox="0 0 21 21" fill="none" xmlns="http://www.w3.org/2000/svg">
<path d="M15.1725 4.7775C14.9648 4.7775 14.7618 4.83908 14.5891 4.95446C14.4165 5.06983 14.2819 5.23382 14.2024 5.42568C14.123 5.61754 14.1022 5.82866 14.1427 6.03234C14.1832 6.23602 14.2832 6.42312 14.43 6.56996C14.5769 6.71681 14.764 6.81681 14.9677 6.85732C15.1713 6.89784 15.3825 6.87704 15.5743 6.79757C15.7662 6.7181 15.9302 6.58352 16.0455 6.41085C16.1609 6.23818 16.2225 6.03517 16.2225 5.8275C16.2225 5.54902 16.1119 5.28195 15.915 5.08504C15.718 4.88812 15.451 4.7775 15.1725 4.7775ZM19.1975 6.895C19.1805 6.16901 19.0445 5.45073 18.795 4.76875C18.5725 4.18524 18.2262 3.65687 17.78 3.22C17.3467 2.7715 16.8171 2.4274 16.2312 2.21375C15.5511 1.95664 14.832 1.81756 14.105 1.8025C13.1775 1.75 12.88 1.75 10.5 1.75C8.12 1.75 7.8225 1.75 6.895 1.8025C6.16801 1.81756 5.44892 1.95664 4.76875 2.21375C4.18397 2.42957 3.65482 2.77337 3.22 3.22C2.7715 3.65328 2.4274 4.18288 2.21375 4.76875C1.95664 5.44892 1.81756 6.16801 1.8025 6.895C1.75 7.8225 1.75 8.12 1.75 10.5C1.75 12.88 1.75 13.1775 1.8025 14.105C1.81756 14.832 1.95664 15.5511 2.21375 16.2312C2.4274 16.8171 2.7715 17.3467 3.22 17.78C3.65482 18.2266 4.18397 18.5704 4.76875 18.7862C5.44892 19.0434 6.16801 19.1824 6.895 19.1975C7.8225 19.25 8.12 19.25 10.5 19.25C12.88 19.25 13.1775 19.25 14.105 19.1975C14.832 19.1824 15.5511 19.0434 16.2312 18.7862C16.8171 18.5726 17.3467 18.2285 17.78 17.78C18.2282 17.3448 18.5748 16.8159 18.795 16.2312C19.0445 15.5493 19.1805 14.831 19.1975 14.105C19.1975 13.1775 19.25 12.88 19.25 10.5C19.25 8.12 19.25 7.8225 19.1975 6.895ZM17.6225 14C17.6161 14.5554 17.5155 15.1057 17.325 15.6275C17.1853 16.0083 16.9609 16.3524 16.6687 16.6337C16.3849 16.9229 16.0416 17.1469 15.6625 17.29C15.1407 17.4805 14.5904 17.5811 14.035 17.5875C13.16 17.6312 12.8362 17.64 10.535 17.64C8.23375 17.64 7.91 17.64 7.035 17.5875C6.45828 17.5983 5.88402 17.5095 5.3375 17.325C4.97506 17.1746 4.64744 16.9512 4.375 16.6687C4.08458 16.3877 3.86299 16.0433 3.7275 15.6625C3.51387 15.1333 3.39539 14.5704 3.3775 14C3.3775 13.125 3.325 12.8012 3.325 10.5C3.325 8.19875 3.325 7.875 3.3775 7C3.38142 6.43217 3.48508 5.86945 3.68375 5.3375C3.83779 4.96817 4.07423 4.63895 4.375 4.375C4.64084 4.07415 4.96938 3.83521 5.3375 3.675C5.87086 3.48254 6.433 3.38194 7 3.3775C7.875 3.3775 8.19875 3.325 10.5 3.325C12.8012 3.325 13.125 3.325 14 3.3775C14.5554 3.38387 15.1057 3.48447 15.6275 3.675C16.0251 3.82257 16.382 4.06249 16.6687 4.375C16.9555 4.64378 17.1795 4.97239 17.325 5.3375C17.5195 5.87032 17.6201 6.43281 17.6225 7C17.6662 7.875 17.675 8.19875 17.675 10.5C17.675 12.8012 17.6662 13.125 17.6225 14ZM10.5 6.01125C9.61258 6.01298 8.74559 6.27771 8.00857 6.77199C7.27155 7.26627 6.69758 7.96792 6.35918 8.78828C6.02078 9.60865 5.93313 10.5109 6.10732 11.3811C6.28151 12.2512 6.70971 13.0502 7.33782 13.6771C7.96593 14.304 8.76576 14.7306 9.63625 14.9031C10.5067 15.0756 11.4088 14.9862 12.2285 14.6462C13.0482 14.3062 13.7488 13.7309 14.2416 12.9929C14.7345 12.2549 14.9975 11.3874 14.9975 10.5C14.9987 9.90947 14.8831 9.32453 14.6573 8.77884C14.4316 8.23314 14.1002 7.73746 13.6823 7.32029C13.2643 6.90313 12.768 6.57272 12.2218 6.34806C11.6757 6.12341 11.0905 6.00894 10.5 6.01125ZM10.5 13.4137C9.92371 13.4137 9.36037 13.2429 8.88121 12.9227C8.40204 12.6025 8.02858 12.1475 7.80804 11.615C7.58751 11.0826 7.52981 10.4968 7.64224 9.93155C7.75466 9.36634 8.03217 8.84716 8.43967 8.43967C8.84716 8.03217 9.36634 7.75466 9.93155 7.64224C10.4968 7.52981 11.0826 7.58751 11.615 7.80804C12.1475 8.02858 12.6025 8.40204 12.9227 8.88121C13.2429 9.36037 13.4137 9.92371 13.4137 10.5C13.4137 10.8826 13.3384 11.2615 13.192 11.615C13.0455 11.9686 12.8309 12.2898 12.5603 12.5603C12.2898 12.8309 11.9686 13.0455 11.615 13.192C11.2615 13.3384 10.8826 13.4137 10.5 13.4137Z" fill="white"/>
</svg>
