<svg width="20" height="20" viewBox="0 0 20 20" fill="none" xmlns="http://www.w3.org/2000/svg">
<path d="M8.43937 3.38375C8.15294 4.60697 8.11402 5.87511 8.32489 7.11359C8.53577 8.35207 8.99218 9.53588 9.66728 10.5954C10.3424 11.6549 11.2225 12.5687 12.256 13.283C13.2894 13.9974 14.4553 14.4978 15.685 14.755C15.0384 15.424 14.2641 15.9563 13.4078 16.3202C12.5516 16.6842 11.631 16.8724 10.7006 16.8737C10.6144 16.8737 10.5269 16.8769 10.4394 16.8737C8.8196 16.8167 7.27101 16.194 6.06262 15.1139C4.85423 14.0337 4.06241 12.5644 3.82471 10.9612C3.58702 9.35792 3.91847 7.72207 4.7615 6.3378C5.60452 4.95353 6.90584 3.90832 8.43937 3.38375ZM9.36249 1.875C9.32581 1.87512 9.28921 1.87847 9.25312 1.885C7.26351 2.23908 5.47521 3.31668 4.23255 4.91033C2.98989 6.50398 2.38072 8.50101 2.52233 10.5169C2.66393 12.5328 3.5463 14.4251 4.99955 15.8294C6.45279 17.2336 8.37417 18.0507 10.3937 18.1231C10.4962 18.1269 10.5987 18.1231 10.7 18.1231C12.0118 18.124 13.3046 17.8089 14.4689 17.2046C15.6333 16.6003 16.635 15.7245 17.3894 14.6512C17.4505 14.5587 17.4862 14.4518 17.4928 14.3411C17.4995 14.2304 17.4768 14.12 17.4272 14.0208C17.3776 13.9217 17.3028 13.8373 17.2102 13.7763C17.1177 13.7153 17.0107 13.6797 16.9 13.6731C15.6514 13.5635 14.4447 13.1683 13.3732 12.518C12.3018 11.8677 11.3941 10.9798 10.7206 9.92274C10.047 8.86573 9.62547 7.668 9.4886 6.4221C9.35174 5.17621 9.50319 3.91553 9.93124 2.7375C9.96766 2.64321 9.98102 2.54158 9.9702 2.44108C9.95938 2.34058 9.92471 2.24412 9.86906 2.15973C9.81342 2.07535 9.73841 2.00548 9.6503 1.95595C9.56218 1.90642 9.46351 1.87867 9.36249 1.875Z" fill="white"/>
</svg>
