<svg width="20" height="20" viewBox="0 0 20 20" fill="none" xmlns="http://www.w3.org/2000/svg">
<path d="M3.58145 7.32579C3.58145 5.64808 4.24791 4.03909 5.43423 2.85278C6.62054 1.66646 8.22953 1 9.90723 1C11.5849 1 13.1939 1.66646 14.3802 2.85278C15.5666 4.03909 16.233 5.64808 16.233 7.32579V11.0398L17.4786 12.9081C17.6976 13.2367 17.8145 13.6227 17.8145 14.0175V14.8145C17.8145 15.919 16.919 16.8145 15.8145 16.8145H13.3777C13.1979 17.6002 12.7567 18.3017 12.1263 18.804C11.4959 19.3064 10.7137 19.58 9.90763 19.58C9.10155 19.58 8.31934 19.3064 7.68897 18.804C7.0586 18.3017 6.6174 17.6002 6.43754 16.8145H4C2.89543 16.8145 2 15.919 2 14.8145V14.0175C2 13.6227 2.11688 13.2367 2.3359 12.9081L3.4135 11.2917C3.52301 11.1275 3.58145 10.9345 3.58145 10.737V7.32579ZM8.09489 16.8145C8.2486 17.1673 8.50196 17.4676 8.8239 17.6786C9.14584 17.8895 9.52235 18.0018 9.90723 18.0018C10.2921 18.0018 10.6686 17.8895 10.9906 17.6786C11.3125 17.4676 11.5659 17.1673 11.7196 16.8145H8.09489ZM9.90723 2.58145C8.64896 2.58145 7.44221 3.0813 6.55248 3.97103C5.66274 4.86077 5.16289 6.06751 5.16289 7.32579V11.2162C5.16289 11.4136 5.10445 11.6066 4.99494 11.7709L3.7494 13.6392C3.63988 13.8035 3.58145 13.9965 3.58145 14.1939V14.233C3.58145 14.7853 4.02916 15.233 4.58145 15.233H15.233C15.7853 15.233 16.233 14.7853 16.233 14.233V14.1939C16.233 13.9965 16.1746 13.8035 16.0651 13.6392L14.8195 11.7709C14.71 11.6066 14.6516 11.4136 14.6516 11.2162V7.32579C14.6516 6.06751 14.1517 4.86077 13.262 3.97103C12.3723 3.0813 11.1655 2.58145 9.90723 2.58145Z" fill="#494949"/>
</svg>
