<svg width="20" height="20" viewBox="0 0 20 20" fill="none" xmlns="http://www.w3.org/2000/svg">
<path d="M18.4209 17.7957C18.7662 17.7957 19.0461 18.0757 19.0461 18.421C19.0461 18.7663 18.7662 19.0463 18.4209 19.0463H2.53845C1.98617 19.0463 1.53845 18.5986 1.53845 18.0463V2.16385C1.53845 1.81852 1.8184 1.53857 2.16373 1.53857C2.50906 1.53857 2.789 1.81852 2.789 2.16385V16.7957C2.789 17.348 3.23672 17.7957 3.789 17.7957H18.4209ZM7.7912 15.5452C7.7912 16.0975 7.34348 16.5452 6.7912 16.5452H5.03955C4.48727 16.5452 4.03955 16.0975 4.03955 15.5452V6.29022C4.03955 5.73794 4.48727 5.29022 5.03955 5.29022H6.7912C7.34348 5.29022 7.7912 5.73794 7.7912 6.29022V15.5452ZM6.54065 10.9177C6.54065 10.5724 6.2607 10.2924 5.91538 10.2924C5.57005 10.2924 5.2901 10.5724 5.2901 10.9177V14.6693C5.2901 15.0147 5.57005 15.2946 5.91538 15.2946C6.2607 15.2946 6.54065 15.0147 6.54065 14.6693V10.9177ZM6.54065 7.16605C6.54065 6.82072 6.2607 6.54077 5.91538 6.54077C5.57005 6.54077 5.2901 6.82072 5.2901 7.16605V8.4166C5.2901 8.76193 5.57005 9.04187 5.91538 9.04187C6.2607 9.04187 6.54065 8.76193 6.54065 8.4166V7.16605ZM12.7934 15.5452C12.7934 16.0975 12.3457 16.5452 11.7934 16.5452H10.0417C9.48946 16.5452 9.04175 16.0975 9.04175 15.5452V8.79132C9.04175 8.23904 9.48946 7.79132 10.0417 7.79132H11.7934C12.3457 7.79132 12.7934 8.23904 12.7934 8.79132V15.5452ZM11.5428 13.4188C11.5428 13.0735 11.2629 12.7935 10.9176 12.7935C10.5722 12.7935 10.2923 13.0735 10.2923 13.4188V14.6693C10.2923 15.0147 10.5722 15.2946 10.9176 15.2946C11.2629 15.2946 11.5428 15.0147 11.5428 14.6693V13.4188ZM11.5428 9.66715C11.5428 9.32182 11.2629 9.04187 10.9176 9.04187C10.5722 9.04187 10.2923 9.32182 10.2923 9.66715V10.9177C10.2923 11.263 10.5722 11.543 10.9176 11.543C11.2629 11.543 11.5428 11.263 11.5428 10.9177V9.66715ZM17.7956 15.5452C17.7956 16.0975 17.3479 16.5452 16.7956 16.5452H15.0439C14.4917 16.5452 14.0439 16.0975 14.0439 15.5452V3.78912C14.0439 3.23684 14.4917 2.78912 15.0439 2.78912H16.7956C17.3479 2.78912 17.7956 3.23684 17.7956 3.78912V15.5452ZM16.545 8.4166C16.545 8.07127 16.2651 7.79132 15.9198 7.79132C15.5744 7.79132 15.2945 8.07127 15.2945 8.4166V14.6693C15.2945 15.0147 15.5744 15.2946 15.9198 15.2946C16.2651 15.2946 16.545 15.0147 16.545 14.6693V8.4166ZM16.545 4.66495C16.545 4.31962 16.2651 4.03967 15.9198 4.03967C15.5744 4.03967 15.2945 4.31962 15.2945 4.66495V5.9155C15.2945 6.26083 15.5744 6.54077 15.9198 6.54077C16.2651 6.54077 16.545 6.26083 16.545 5.9155V4.66495Z" fill="white"/>
</svg>
