<svg width="20" height="20" viewBox="0 0 20 20" fill="none" xmlns="http://www.w3.org/2000/svg">
<path d="M10 3.33341C9.11594 3.33341 8.2681 3.6846 7.64298 4.30973C7.01786 4.93485 6.66667 5.78269 6.66667 6.66675C6.66667 7.5508 7.01786 8.39865 7.64298 9.02377C8.2681 9.64889 9.11594 10.0001 10 10.0001C10.8841 10.0001 11.7319 9.64889 12.357 9.02377C12.9821 8.39865 13.3333 7.5508 13.3333 6.66675C13.3333 5.78269 12.9821 4.93485 12.357 4.30973C11.7319 3.6846 10.8841 3.33341 10 3.33341ZM5 6.66675C5 5.34067 5.52678 4.0689 6.46447 3.13121C7.40215 2.19353 8.67392 1.66675 10 1.66675C11.3261 1.66675 12.5979 2.19353 13.5355 3.13121C14.4732 4.0689 15 5.34067 15 6.66675C15 7.99283 14.4732 9.2646 13.5355 10.2023C12.5979 11.14 11.3261 11.6667 10 11.6667C8.67392 11.6667 7.40215 11.14 6.46447 10.2023C5.52678 9.2646 5 7.99283 5 6.66675ZM6.66667 15.0001C6.00363 15.0001 5.36774 15.2635 4.8989 15.7323C4.43006 16.2012 4.16667 16.837 4.16667 17.5001C4.16667 17.7211 4.07887 17.9331 3.92259 18.0893C3.76631 18.2456 3.55435 18.3334 3.33333 18.3334C3.11232 18.3334 2.90036 18.2456 2.74408 18.0893C2.5878 17.9331 2.5 17.7211 2.5 17.5001C2.5 16.395 2.93899 15.3352 3.72039 14.5538C4.50179 13.7724 5.5616 13.3334 6.66667 13.3334H13.3333C14.4384 13.3334 15.4982 13.7724 16.2796 14.5538C17.061 15.3352 17.5 16.395 17.5 17.5001C17.5 17.7211 17.4122 17.9331 17.2559 18.0893C17.0996 18.2456 16.8877 18.3334 16.6667 18.3334C16.4457 18.3334 16.2337 18.2456 16.0774 18.0893C15.9211 17.9331 15.8333 17.7211 15.8333 17.5001C15.8333 16.837 15.5699 16.2012 15.1011 15.7323C14.6323 15.2635 13.9964 15.0001 13.3333 15.0001H6.66667Z" fill="#494949"/>
</svg>
