<svg width="18" height="18" viewBox="0 0 18 18" fill="none" xmlns="http://www.w3.org/2000/svg">
<g clipPath="url(#clip0_5_50)">
<path d="M17.3572 8.99997C17.3572 11.2164 16.4767 13.3421 14.9094 14.9094C13.3422 16.4766 11.2165 17.3571 9.00003 17.3571C6.78357 17.3571 4.6579 16.4766 3.09063 14.9094C1.52337 13.3421 0.642883 11.2164 0.642883 8.99997M17.3572 8.99997C17.3572 6.78351 16.4767 4.65784 14.9094 3.09057C13.3422 1.5233 11.2165 0.642822 9.00003 0.642822C6.78357 0.642822 4.6579 1.5233 3.09063 3.09057C1.52337 4.65784 0.642883 6.78351 0.642883 8.99997M17.3572 8.99997H0.642883" stroke="white" strokeLinecap="round" strokeLinejoin="round"/>
<path d="M12.2143 8.99997C12.0565 12.0561 10.9308 14.9828 9.00005 17.3571C7.06932 14.9828 5.94365 12.0561 5.78577 8.99997C5.94365 5.94383 7.06932 3.01709 9.00005 0.642822C10.9308 3.01709 12.0565 5.94383 12.2143 8.99997Z" stroke="white" strokeLinecap="round" strokeLinejoin="round"/>
</g>
<defs>
<clipPath id="clip0_5_50">
<rect width="18" height="18" fill="white"/>
</clipPath>
</defs>
</svg>
