<svg width="22" height="22" viewBox="0 0 22 22" fill="none" xmlns="http://www.w3.org/2000/svg">
<path d="M21 11.0619C21 5.50335 16.5206 1 11 1C5.47563 1 1 5.50335 1 11.0619C1 16.0829 4.65562 20.246 9.4375 21V13.9711H6.89813V11.0626H9.4375V8.84454C9.4375 6.3234 10.9281 4.93108 13.2131 4.93108C14.3075 4.93108 15.4531 5.12728 15.4531 5.12728V7.60315H14.19C12.95 7.60315 12.5625 8.37981 12.5625 9.17533V11.0619H15.3356L14.89 13.9705H12.5625V20.9994C17.3406 20.2454 21 16.0822 21 11.0613V11.0619Z" fill="white"/>
</svg>
