<svg width="22" height="22" viewBox="0 0 22 22" fill="none" xmlns="http://www.w3.org/2000/svg">
<path d="M3.51336 3.66683H7.62919L8.95561 6.98333L6.82436 8.40416C6.69885 8.4879 6.59596 8.60132 6.5248 8.73436C6.45364 8.8674 6.41642 9.01595 6.41644 9.16683V9.187C6.41699 9.22799 6.41882 9.26895 6.42194 9.30983C6.42744 9.385 6.43661 9.48675 6.45403 9.61233C6.48978 9.85983 6.55853 10.2008 6.69236 10.6023C6.96186 11.409 7.48986 12.4531 8.51836 13.4816C9.54686 14.5101 10.5909 15.0381 11.3967 15.3076C11.7991 15.4414 12.1392 15.5092 12.3885 15.5459C12.5293 15.5656 12.6709 15.5778 12.8129 15.5826L12.8249 15.5835H12.8322C13.0024 15.5834 13.1701 15.5359 13.3148 15.4464C13.4596 15.3569 13.5765 15.2288 13.6526 15.0766L14.2668 13.8482L18.3331 14.5266V18.4866C16.398 18.7662 11.1712 19.0421 7.06453 14.9354C2.95786 10.8287 3.23286 5.601 3.51336 3.66683ZM8.31669 9.61233L9.97311 8.50866C10.323 8.27525 10.5821 7.92861 10.7067 7.52688C10.8314 7.12515 10.8142 6.69276 10.6579 6.30225L9.33145 2.98575C9.19533 2.64558 8.96041 2.35399 8.657 2.14861C8.35358 1.94323 7.99559 1.83347 7.62919 1.8335H3.46569C2.63244 1.8335 1.84869 2.41191 1.71211 3.31575C1.40044 5.37091 0.977861 11.4411 5.76836 16.2316C10.5589 21.0221 16.629 20.5986 18.6842 20.2878C19.588 20.1503 20.1664 19.3675 20.1664 18.5342V14.5266C20.1665 14.0926 20.0126 13.6727 19.7321 13.3415C19.4516 13.0103 19.0628 12.7894 18.6347 12.718L14.5684 12.0406C14.1816 11.976 13.7844 12.0372 13.4349 12.215C13.0855 12.3929 12.8023 12.6781 12.6269 13.0287L12.3097 13.664C12.1975 13.6364 12.0865 13.6043 11.9769 13.5677C11.4086 13.3789 10.6194 12.9902 9.81453 12.1854C9.00969 11.3806 8.62103 10.5913 8.43219 10.0221C8.3871 9.88752 8.34794 9.75076 8.31669 9.61233Z" fill="white"/>
</svg>
