<svg width="22" height="22" viewBox="0 0 22 22" fill="none" xmlns="http://www.w3.org/2000/svg">
<path fill-rule="evenodd" clip-rule="evenodd" d="M15.5742 1.51529C12.5616 0.828238 9.4375 0.828238 6.42491 1.51529L6.1003 1.58856C5.2529 1.78185 4.4746 2.21104 3.85188 2.82843C3.22915 3.44583 2.78637 4.22727 2.57273 5.08594C1.80909 8.15595 1.80909 11.3719 2.57273 14.4419C2.77647 15.2609 3.18882 16.0103 3.76796 16.6142C4.34711 17.2181 5.07246 17.655 5.87049 17.8807L6.31575 20.5927C6.32996 20.6788 6.36655 20.7594 6.42169 20.8262C6.47683 20.893 6.54851 20.9435 6.62927 20.9724C6.71003 21.0013 6.79692 21.0077 6.88088 20.9907C6.96485 20.9737 7.04282 20.9341 7.10668 20.876L9.72172 18.4893C11.6848 18.6116 13.6549 18.4514 15.5742 18.0136L15.8998 17.9403C16.7472 17.747 17.5255 17.3178 18.1482 16.7004C18.7709 16.083 19.2137 15.3016 19.4273 14.4429C20.1909 11.3729 20.1909 8.15694 19.4273 5.08692C19.2136 4.22812 18.7707 3.4466 18.1478 2.82919C17.5249 2.21178 16.7464 1.78267 15.8988 1.58953L15.5742 1.51529ZM7.23307 5.00681C7.05511 4.98039 6.87364 5.01693 6.71887 5.11037H6.70547C6.34639 5.32529 6.02274 5.5959 5.74697 5.91437C5.51716 6.18498 5.39268 6.45852 5.36013 6.72229C5.34098 6.8786 5.35438 7.03686 5.39939 7.18633L5.41662 7.1961C5.67516 7.9708 6.01221 8.71619 6.42395 9.41762C6.95486 10.4028 7.60819 11.314 8.36776 12.1286L8.39074 12.1618L8.42712 12.1892L8.44915 12.2155L8.47596 12.239C9.27716 13.0163 10.1724 13.686 11.1398 14.2319C12.2458 14.8464 12.917 15.1365 13.3201 15.2577V15.2635C13.4379 15.3007 13.5452 15.3173 13.6534 15.3173C13.9967 15.2914 14.3216 15.149 14.5764 14.9128C14.8876 14.6315 15.151 14.3003 15.3559 13.932V13.9251C15.5483 13.5539 15.4832 13.2042 15.2055 12.9668C14.6478 12.4696 14.0446 12.0279 13.4044 11.6479C12.9754 11.4105 12.5398 11.5542 12.3636 11.7945L11.9873 12.279C11.7938 12.5194 11.4434 12.4861 11.4434 12.4861L11.4338 12.492C8.81876 11.8111 8.12071 9.10989 8.12071 9.10989C8.12071 9.10989 8.08815 8.74257 8.33041 8.555L8.80152 8.16814C9.0275 7.98057 9.18454 7.53704 8.94228 7.09938C8.57229 6.44559 8.14028 5.83043 7.65247 5.26277C7.54608 5.12917 7.39687 5.03818 7.23116 5.00584L7.23307 5.00681ZM11.6512 3.83255C11.5242 3.83255 11.4024 3.88401 11.3126 3.97562C11.2228 4.06722 11.1724 4.19146 11.1724 4.32101C11.1724 4.45056 11.2228 4.5748 11.3126 4.66641C11.4024 4.75801 11.5242 4.80947 11.6512 4.80947C12.8624 4.80947 13.8679 5.21294 14.6636 5.98667C15.0724 6.40967 15.3913 6.91084 15.6 7.45987C15.8097 8.00988 15.9055 8.59701 15.8806 9.18511C15.878 9.24926 15.8877 9.31331 15.9094 9.3736C15.931 9.43389 15.964 9.48925 16.0066 9.53652C16.0926 9.63197 16.2123 9.68865 16.3393 9.69409C16.4662 9.69953 16.5901 9.65329 16.6837 9.56553C16.7773 9.47777 16.8328 9.35569 16.8381 9.22614C16.8678 8.50272 16.7501 7.78087 16.4925 7.10622C16.2337 6.42837 15.8413 5.81191 15.3396 5.295L15.33 5.28524C14.3428 4.32297 13.0932 3.83255 11.6512 3.83255ZM11.6186 5.43861C11.4916 5.43861 11.3698 5.49008 11.2801 5.58168C11.1903 5.67328 11.1398 5.79753 11.1398 5.92707C11.1398 6.05662 11.1903 6.18086 11.2801 6.27247C11.3698 6.36407 11.4916 6.41554 11.6186 6.41554H11.6349C12.5082 6.47904 13.144 6.77602 13.5892 7.26351C14.046 7.76564 14.2825 8.3899 14.2643 9.16167C14.2614 9.29122 14.309 9.41664 14.3967 9.51035C14.4844 9.60406 14.6051 9.65838 14.732 9.66136C14.859 9.66434 14.982 9.61574 15.0738 9.52624C15.1657 9.43674 15.2189 9.31368 15.2218 9.18414C15.2448 8.17107 14.925 7.29672 14.2911 6.5992V6.59724C13.6428 5.888 12.7533 5.51286 11.6828 5.43959L11.6665 5.43764L11.6186 5.43861ZM11.6004 7.07496C11.5363 7.06919 11.4718 7.07665 11.4106 7.0969C11.3494 7.11715 11.2929 7.14977 11.2443 7.19281C11.1958 7.23586 11.1562 7.28844 11.128 7.34742C11.0998 7.4064 11.0836 7.47058 11.0802 7.53611C11.0769 7.60165 11.0865 7.6672 11.1085 7.72885C11.1306 7.79051 11.1645 7.847 11.2084 7.89496C11.2524 7.94291 11.3053 7.98135 11.3641 8.00798C11.4229 8.0346 11.4863 8.04887 11.5506 8.04993C11.9509 8.07142 12.2065 8.19451 12.3674 8.35961C12.5292 8.52569 12.6499 8.79239 12.6719 9.20954C12.6731 9.27509 12.6872 9.33972 12.7134 9.39959C12.7396 9.45946 12.7773 9.51333 12.8244 9.558C12.8714 9.60267 12.9268 9.63722 12.9872 9.65959C13.0476 9.68197 13.1118 9.6917 13.176 9.68823C13.2401 9.68475 13.303 9.66813 13.3607 9.63935C13.4185 9.61058 13.4699 9.57024 13.5121 9.52074C13.5542 9.47124 13.5861 9.41359 13.606 9.35123C13.6258 9.28887 13.6331 9.22307 13.6275 9.15776C13.5969 8.57161 13.4169 8.05384 13.0482 7.67284C12.6776 7.29184 12.173 7.10622 11.6004 7.07496Z" fill="white"/>
</svg>
