<svg width="22" height="22" viewBox="0 0 22 22" fill="none" xmlns="http://www.w3.org/2000/svg">
<path d="M10.5382 1.00006C5.32512 1.00006 1.07638 5.22754 1.07638 10.4145C1.07638 12.077 1.51558 13.692 2.33668 15.117L1 20L6.01256 18.689C7.39698 19.4395 8.95327 19.8385 10.5382 19.8385C15.7513 19.8385 20 15.611 20 10.424C20 7.90654 19.0166 5.54104 17.2312 3.76455C16.3558 2.88478 15.3132 2.18724 14.1641 1.7126C13.015 1.23797 11.7824 0.995744 10.5382 1.00006ZM10.5477 2.58655C12.6482 2.58655 14.6151 3.40355 16.1045 4.88555C16.8355 5.61263 17.415 6.47614 17.8099 7.42656C18.2048 8.37698 18.4072 9.39561 18.4055 10.424C18.4055 14.737 14.8729 18.2425 10.5382 18.2425C9.12512 18.2425 7.7407 17.872 6.53769 17.15L6.25126 16.9885L3.27236 17.7675L4.06482 14.8795L3.87387 14.5755C3.08517 13.3298 2.668 11.8869 2.67085 10.4145C2.6804 6.10154 6.20352 2.58655 10.5477 2.58655ZM7.18693 6.06354C7.03417 6.06354 6.77638 6.12054 6.55678 6.35804C6.34673 6.59554 5.72613 7.17504 5.72613 8.32453C5.72613 9.48353 6.57588 10.595 6.6809 10.7565C6.81457 10.918 8.36131 13.293 10.7387 14.3C11.302 14.5565 11.7412 14.699 12.0849 14.8035C12.6482 14.984 13.1638 14.9555 13.5744 14.8985C14.0327 14.832 14.9683 14.3285 15.1688 13.7775C15.3693 13.2265 15.3693 12.761 15.3121 12.6565C15.2452 12.5615 15.0925 12.5045 14.8538 12.4C14.6151 12.267 13.4502 11.697 13.2402 11.621C13.0206 11.545 12.8869 11.507 12.7055 11.735C12.5528 11.9725 12.0945 12.5045 11.9608 12.6565C11.8176 12.818 11.6839 12.837 11.4548 12.723C11.2065 12.5995 10.4427 12.3525 9.54523 11.5545C8.83869 10.9275 8.37085 10.158 8.22764 9.92053C8.11306 9.69253 8.21809 9.55003 8.33266 9.44553C8.43769 9.34103 8.59045 9.17003 8.68593 9.02753C8.81005 8.89453 8.84824 8.79003 8.92462 8.63803C9.001 8.47653 8.96281 8.34353 8.90553 8.22953C8.84824 8.12504 8.37085 6.94704 8.17035 6.48154C7.9794 6.02554 7.78844 6.08254 7.63568 6.07304C7.50201 6.07304 7.34925 6.06354 7.18693 6.06354Z" fill="white"/>
</svg>
